<svg xmlns="http://www.w3.org/2000/svg" width="160" height="160" viewBox="0 0 160 160">
  <defs>
    <style>
      .cls-1 {
        fill: #fae951;
      }

      .cls-1, .cls-2, .cls-3, .cls-4 {
        fill-rule: evenodd;
      }

      .cls-2 {
        fill: #fed428;
      }

      .cls-3 {
        fill: #821e1e;
      }

      .cls-4 {
        fill: #feb214;
      }
    </style>
  </defs>
  <path id="Color_Fill_4" data-name="Color Fill 4" class="cls-1" d="M88,11c10.232-1,23.82,2.726,18,11-7.894-3.591-15.352-3.537-26-3V18l3-5Z"/>
  <path id="Color_Fill_5" data-name="Color Fill 5" class="cls-2" d="M81,2c51.523-.958,96.775,59.6,74,114-10.149,24.244-34.49,35.943-64,41C28.882,167.644-16.729,101.545,8,48,22.271,17.1,48.164,15.284,81,2Z"/>
  <path id="Color_Fill_2" data-name="Color Fill 2" class="cls-3" d="M122,46c6.785-.369,10.925-0.185,14,3l-14,6q-0.5,2.5-1,5c3.581,1.965,5.188,4.26,4,8-1.681,6.291-5.395,8.674-13,9-4.465-3.366-5.823-5.293-9-10C106.417,54.423,109.463,52.23,122,46ZM40,47c18.959-.862,35.562,5.206,36,23l-5,8c-3.765,1.191-7.705,2.858-12,1-4.95-2.117-6.609-4.173-7-11,4.856-7.1,6.08-5.031,1-12C46.921,54.593,39.869,52.212,40,47ZM88,89c24.506-1.018,40.806,5.1,42,27l-2,3h-3l-2-2c-0.767-9.962-3.849-14.3-11-18-25.91-13.4-36.823,11.5-49,24-5.288-.266-4.821.232-7-3l-1-5C62.859,99.108,71.679,96.667,88,89Z"/>
  <path id="Color_Fill_1" data-name="Color Fill 1" class="cls-4" d="M81,1h2c-1.259,3.023.018,1.2-2,3C62.791,15.245,42.162,24.176,40,51c7.1,1.7,11.822,4.629,17,8-2.476,10.457-5.058,9.742-1,20H52c-5.426-5.558-11.691-8.093-15-16H36c-7.314,46.862,1.93,87.694,46,92v3H77c-15.308-3.933-29.38-4.843-41-12C4.825,126.8-13.006,73.433,14,36,30.4,13.265,52.41,12.619,81,1Zm54,49c5.994,13.076-6.121,27.658-18,28V76c4.823-1.717,5.958-3.782,9-7-1.179-6.84-5.278-9.007-3-13,1.6-2.7.339-1.377,3-3ZM96,95c10.506,0.651,16.676,3.577,23,8l4,11-14-10c-20.153-7.7-33.429,16.323-42,25l-8-1-5-3v-5h1c3.808,3.275,6.2,3.417,11,1C71,105.459,81.791,101.622,96,95Z"/>
</svg>
